<svg height="20" viewBox="0 0 26 20" width="26" xmlns="http://www.w3.org/2000/svg"><path d="m13.0175676 11.2167568c.445045 0 .9057057-.2342343 1.3819819-.7027027l9.6504505-9.5567568c-.4216216-.3981982-1.178979-.5972973-2.2720721-.5972973h-17.84864862c-.95255255 0-1.61621622.18348348-1.99099099.55045045l9.69729731 9.60360365c.4684685.4684684.9291291.7027027 1.381982.7027027zm-12.07477481 6.6054054 7.90540541-7.82342346-7.90540541-7.8c-.19519519.33573573-.29279279.9018018-.29279279 1.6981982v12.22702706c0 .7963964.0975976 1.3624624.29279279 1.6981982zm24.13783781-.0117117c.1795796-.3357358.2693694-.8978979.2693694-1.6864865v-12.22702706c0-.78078078-.0936937-1.33903904-.2810811-1.67477478l-7.881982 7.77657658zm-3.0099099 1.8504504c.9525526 0 1.624024-.1834835 2.0144144-.5504504l-8.0576576-7.9756757-.7027027.7027027c-.7495496.7183183-1.5186186 1.0774775-2.3072072 1.0774775s-1.5576577-.3591592-2.3072072-1.0774775l-.71441445-.7027027-8.03423424 7.9639639c.43723724.3747748 1.19069069.5621622 2.26036036.5621622z" fill="#a42fff"/></svg>