<svg height="13" viewBox="0 0 22 13" width="22" xmlns="http://www.w3.org/2000/svg"><path d="m18.0627901 9.26047375c-.5051417 0-.9160461-.41119529-.9160461-.91634378s.4109044-.91604699.9160461-.91604699c.5051594 0 .9160462.4108985.9160462.91604699s-.4108868.91634378-.9160462.91634378m-10.1255752 0c-.50516107 0-.91604616-.41119529-.91604616-.91634378s.41088509-.91604699.91604616-.91604699c.50514178 0 .91604448.4108985.91604448.91604699s-.41090354.91634378-.91604448.91634378m10.4541272-5.51828798 1.8308951-3.17093454c.1049621-.182259.042518-.41506027-.1394442-.52031243-.1819597-.10495453-.4150594-.04251721-.5203116.13944333l-1.8537965 3.2110724c-1.4176315-.64697116-3.009782-1.00732405-4.7086849-1.00732405-1.6989004 0-3.29105091.36035289-4.7086824 1.00732405l-1.85379484-3.2110724c-.10525384-.18196054-.33835273-.24439786-.5203141-.13944333-.18196054.10525216-.24469381.33805343-.13944165.52031243l1.83089341 3.17093454c-3.14387052 1.70989631-5.29409865 4.89272424-5.60866042 8.65295043h22c-.3148502-3.76022703-2.4650783-6.94305412-5.6086579-8.65295043" fill="#a42fff" transform="translate(-2)"/></svg>